# xmcd
# 
# Track frame offsets:
#     150
#     17427
#     37219
#     56840
#     77475
#     94358
#     111449
#     140601
#     160484
#     179463
#     199688
#     216754
#     234941
# 
# Disc length: 3401
# 
# Revision: 3
# Processed by: cddbd v1.5.2PL0 Copyright (c) Steve Scherf et al.
# Submitted via: BonkEnc v1.0
# 
DISCID=b70d470d
DTITLE=Cassiane - Você e Eu
DYEAR=0
DGENRE=Gospel and Religious
TTITLE0=Você e eu
TTITLE1=Nosso grande amor
TTITLE2=Amigo
TTITLE3=Um só coração
TTITLE4=Autor do nosso amor
TTITLE5=Família abençoada
TTITLE6=Filho pródigo
TTITLE7=Adore o salvador
TTITLE8=Com poder e glória
TTITLE9=Hoje eu estou aqui
TTITLE10=Quando você clama
TTITLE11=Não desista
TTITLE12=Casamento é coisa séria
EXTD=
EXTT0=
EXTT1=
EXTT2=
EXTT3=
EXTT4=
EXTT5=
EXTT6=
EXTT7=
EXTT8=
EXTT9=
EXTT10=
EXTT11=
EXTT12=
PLAYORDER=
